<?xml version="1.0" standalone="no"?>
<svg xmlns="http://www.w3.org/2000/svg" viewBox="0 0 72.64 52.480000000000004" width="72.64" height="52.480000000000004"><rect fill="#FF3434" width="72.64" height="52.480000000000004" x="0" y="0"></rect><path fill="white" fill-rule="nonzero" d="M15.20 17L21.56 28.48L15.12 28.48L9.56 17.92L5.56 17.92L5.56 28.48L0 28.48L0 6.12Q0 2.92 1.48 1.46Q2.96 0 6.44 0L6.44 0L11.16 0Q15.40 0 17.90 2.58Q20.40 5.16 20.40 9.12L20.40 9.12Q20.40 12 18.90 14.10Q17.40 16.20 15.20 17L15.20 17ZM10.80 13.28Q12.56 13.28 13.70 12.06Q14.84 10.84 14.84 9.02Q14.84 7.20 13.74 6.08Q12.64 4.96 10.80 4.96L10.80 4.96L8.04 4.96Q5.56 4.96 5.56 7.48L5.56 7.48L5.56 13.28L10.80 13.28ZM39.04 13.88L48.64 28.48L41.76 28.48L35.80 18.56L29.92 28.48L23.04 28.48L32.60 13.88L23.64 0L30.48 0L35.80 9.20L41.20 0L48 0L39.04 13.88Z" transform="translate(12 12.001) scale(1)"></path></svg>